<?xml version="1.0" encoding="UTF-8"?> <svg xmlns="http://www.w3.org/2000/svg" viewBox="0 0 397.26 495"> <defs> <style>.cls-1{fill:#dceeff;}.cls-2{fill:#bbe0ff;}.cls-3,.cls-9{fill:none;stroke-miterlimit:10;}.cls-3{stroke:#a5b9d9;}.cls-4{fill:#fff;}.cls-5{fill:#e4e8ea;}.cls-6{fill:#e9f6ff;}.cls-7{fill:#cae5ff;}.cls-8{fill:#7bb1ff;}.cls-9{stroke:#7bb1ff;}</style> </defs> <title>template_illustrationМонтажная область 13</title> <g id="Слой_4" data-name="Слой 4"> <polygon class="cls-1" points="310.27 78.03 238.97 43.87 275.78 110.57 291.04 96.17 297.14 102.98 298.01 89.64 297.94 89.66 310.27 78.03"></polygon> <polygon class="cls-2" points="297.14 102.98 291.04 96.17 251.87 55.53 298.01 89.64 297.14 102.98"></polygon> <path class="cls-3" d="M308.19,114s58.21,58.2,31.94,84.15c-23.67,23.38-75.36-21.71-60.38-43.35,13.56-19.58,58.53,45.59,19.94,71.83C219.51,281.17,51,161.71,6.13,5.83"></path> <polyline class="cls-3" points="293.73 287.57 293.73 374.12 387.22 374.12"></polyline> <path class="cls-3" d="M293.73,374.11s17.45-52.65,28.49-52.65,11.45,32.45,22.9,32.45,16.36-54.09,26.58-54.09"></path> <path class="cls-3" d="M363.19,411.86l-8.68,8.68a4,4,0,0,0,5.64,5.64L371,415.55a6.95,6.95,0,0,0-9.82-9.82L349.8,417.09a9.76,9.76,0,1,0,13.8,13.8l9.53-9.53"></path> <polygon class="cls-4" points="168.15 399.21 108.23 370.34 168.15 341.47 228.07 370.34 168.15 399.21"></polygon> <polygon class="cls-5" points="168.15 467.14 108.23 438.27 168.15 409.39 228.07 438.27 168.15 467.14"></polygon> <polygon class="cls-6" points="168.15 399.21 168.15 488.37 108.23 459.49 108.23 370.34 168.15 399.21"></polygon> <polygon class="cls-7" points="168.15 399.21 228.07 370.34 228.07 459.49 168.15 488.37 168.15 399.21"></polygon> <rect class="cls-8" x="221.32" y="422.25" width="17.95" height="15.52" transform="matrix(0.95, -0.31, 0.31, 0.95, -121.91, 92.52)"></rect> <ellipse class="cls-8" cx="238.97" cy="456.6" rx="29.86" ry="30" transform="translate(-129.72 96.52) rotate(-18.05)"></ellipse> <ellipse class="cls-1" cx="238.97" cy="456.6" rx="25.4" ry="25.52" transform="translate(-129.72 96.52) rotate(-18.05)"></ellipse> <polyline class="cls-9" points="234.69 443.47 238.97 456.6 248.67 453.44"></polyline> </g> </svg> 