<?xml version="1.0" encoding="UTF-8"?> <svg xmlns="http://www.w3.org/2000/svg" viewBox="0 0 993 777"> <defs> <style>.cls-1{fill:#f4f7f9;}.cls-2{fill:#f5faff;}.cls-3{fill:#e4e8ea;}.cls-4{fill:#e9f6ff;}.cls-5{fill:#cae5ff;}.cls-6{fill:#7bb1ff;}.cls-7{fill:#ff5e4d;}.cls-8{fill:#ff9292;}.cls-9{fill:#def1ff;}.cls-10,.cls-12{fill:none;stroke-miterlimit:10;}.cls-10{stroke:#7bb1ff;}.cls-11{fill:#fff;}.cls-12{stroke:#ff684a;}.cls-13{fill:#dceeff;}.cls-14{fill:#bbe0ff;}.cls-15{fill:#0056d3;}.cls-16{fill:#ffd2c0;}</style> </defs> <title>template_illustrationМонтажная область 1</title> <g id="Слой_3" data-name="Слой 3"> <path class="cls-1" d="M46.28,573.92C106.78,527,253.53,493.08,480,496s398,29.44,478,117.76c50.52,55.8,4.65,94.45-94,81.85C766.21,683.1,674.49,647,566.57,659.78s-285.39,70.85-421.81,52.16S-32.3,634.81,46.28,573.92Z"></path> <polygon class="cls-2" points="94.74 458.63 8.98 417.31 94.74 375.99 180.5 417.31 94.74 458.63"></polygon> <polygon class="cls-3" points="94.74 555.84 8.98 514.52 94.74 473.2 180.5 514.52 94.74 555.84"></polygon> <polygon class="cls-4" points="94.74 458.63 94.74 586.23 8.98 544.9 8.98 417.31 94.74 458.63"></polygon> <polygon class="cls-5" points="94.74 458.63 180.5 417.31 180.5 544.9 94.74 586.23 94.74 458.63"></polygon> <ellipse class="cls-6" cx="74.39" cy="358.87" rx="33.25" ry="8.26"></ellipse> <path class="cls-5" d="M41.14,358.87s0,23,11.08,50.21c0,0,22.17,13,46.95,0,0,0,6.85-13.85,8.48-50.21,0,0-2.83,6.63-33.25,7.09C49.28,366.35,42.77,362.13,41.14,358.87Z"></path> <path class="cls-7" d="M66.11,328.64c-2-9.13,2.8-23.16.24-34.66-2.29-10.29-10.47-10.92-13.6-19.68s1.25-14.7-1.88-22.14-7.13-9.28-11.55-14.67c-8.5-10.38-17.23-9.75-18.3-3.51-1.32,7.66,7.54,9.95,7.27,15.57-.4,8.31-5.82,10.16-3.92,19.46,1.79,8.74,9,6.74,14.47,16.64,6.79,12.35-4.29,17.08,0,30,2.17,6.54,5.13,8.8,7.91,11.42,8.87,8.36-4.5,13.94-1.56,24.68s8.05,13,8.05,13c6.13,1.41,15.68,1.17,15.68,1.17s9.39-6.88,8.45-17.54S67.93,337.09,66.11,328.64Z"></path> <path class="cls-8" d="M83,324.24c1.31-6.24,7-11.37,7.67-23.05.85-13.9-8.27-20.88-7.12-28.57,1.55-10.4,5.7-11.35,6.64-16.09,2.11-10.73-3.48-15.81-3-25.62.42-9.44-3.81-23.21-9.89-22.55s-.35,9.74-1.91,20.69-9.63,6.3-12.05,17.25c-2.84,12.84,7.4,12.94,6.05,25.34-1.2,11.06-13.76,10.63-13.31,26,.38,12.82,4.38,13.48,3,27-.78,7.53-7.89,7.34-9,23.47a18.89,18.89,0,0,0,8.77,17.42,131.48,131.48,0,0,0,22.37.22s7.11-3.72,7.48-14.59S80.48,336.14,83,324.24Z"></path> <path class="cls-7" d="M107.83,328.15c3.57-3.12,8.32-6.13,9.85-14.32,1.79-9.6-5.25-13-3.1-23.12s7.85-8.24,10-14c4-10.8-2.68-11.31-.83-18.13,3-11.11,2.72-19.64-3.61-19.31-7.24.38-3.9,13.94-13.32,15.63-9.2,1.65-10.54,14.15-6.45,21,3.53,5.93,2.95,14.59-6.65,17.63s-10.18,19.76-6.32,25.85c4.3,6.78,2.19,12.52,2.19,12.52C86,340.25,75.17,340.13,73.41,350s3.41,16,3.41,16,10.77,0,19-2.13c8.91-2.35,11.18-15.31,8.18-21S104.08,331.43,107.83,328.15Z"></path> <path class="cls-1" d="M628.11,737.71c-28.2-33.51,125.24-73.08,195.68-21.2S671.18,788.89,628.11,737.71Z"></path> </g> <g id="Слой_1" data-name="Слой 1"> <rect class="cls-2" x="148.36" y="39.46" width="722.64" height="434.04"></rect> <rect class="cls-9" x="148.36" y="39.46" width="178.02" height="434.04"></rect> <circle class="cls-6" cx="181.82" cy="72.7" r="10.91"></circle> <line class="cls-10" x1="206.92" y1="67.89" x2="301.5" y2="67.89"></line> <line class="cls-10" x1="206.92" y1="77.5" x2="282.01" y2="77.5"></line> <rect class="cls-5" x="148.36" y="23.15" width="722.64" height="16.31"></rect> <line class="cls-10" x1="355" y1="67.89" x2="533" y2="67.89"></line> <line class="cls-10" x1="355" y1="82.95" x2="480" y2="82.95"></line> <rect class="cls-11" x="355" y="114" width="150.89" height="331.67"></rect> <rect class="cls-11" x="523.56" y="279.83" width="150.89" height="165.83"></rect> <rect class="cls-11" x="692.11" y="279.83" width="150.89" height="165.83"></rect> <rect class="cls-11" x="523.56" y="114" width="319.44" height="150.04"></rect> <line class="cls-12" x1="800.97" y1="473.5" x2="800.97" y2="562.76"></line> <line class="cls-12" x1="779.29" y1="562.76" x2="822.01" y2="562.76"></line> <line class="cls-12" x1="219.17" y1="473.5" x2="219.17" y2="562.76"></line> <line class="cls-12" x1="197.5" y1="562.76" x2="240.22" y2="562.76"></line> <polygon class="cls-13" points="446.07 229.22 379.09 193.93 414.6 260.91 428.52 246.88 434.32 253.77 434.88 240.53 434.82 240.55 446.07 229.22"></polygon> <polygon class="cls-14" points="434.32 253.77 428.52 246.88 391.31 205.76 434.88 240.53 434.32 253.77"></polygon> </g> <g id="Слой_2" data-name="Слой 2"> <path class="cls-15" d="M769.5,181.55s96.86-2.85,127.7,19.77l-19.72,20.8s-31.52-23-105.23-20.34Z"></path> <rect class="cls-14" x="720.16" y="155.77" width="21.8" height="18.85" transform="translate(-15.21 234.65) rotate(-18.05)"></rect> <ellipse class="cls-14" cx="741.59" cy="197.5" rx="36.27" ry="36.44" transform="translate(-24.7 239.51) rotate(-18.05)"></ellipse> <ellipse class="cls-13" cx="741.59" cy="197.5" rx="27.89" ry="28.02" transform="translate(-24.7 239.51) rotate(-18.05)"></ellipse> <polyline class="cls-10" points="736.39 181.55 741.59 197.5 753.38 193.66"></polyline> <path class="cls-5" d="M855.17,602.09c9.42-8.32,52.13,1.42,57.13,7.68s7.21,13.78-1.62,17.54S845.23,610.87,855.17,602.09Z"></path> <path class="cls-5" d="M847.68,576.77c9.42-8.32,52.13,1.42,57.13,7.68S912,598.23,903.18,602,837.74,585.55,847.68,576.77Z"></path> <path class="cls-6" d="M857.67,329S842.33,354.68,841,383c-2.5,53,34.5,195,48.65,226.59,0,0,14.85,2.86,28.17-4.57l-10.24-56.08S937,416.79,934.2,376.87c-2.18-31.23-25.85-52.65-25.85-52.65Z"></path> <path class="cls-15" d="M731,244.8c30.39,13.78,84.21,4,111.73,22.53,10.24,6.91,10.32,21.65,8,31-5.72,22.67-14.13,33.88-14.13,33.88,68,16.35,93-13.22,93-13.22,16.46-117.19,3.71-109.34-13.7-112.41-19.68-3.47-41,9.09-41,9.09A199.38,199.38,0,0,1,818,232.27c-36.87,5-82.87-4.93-82.87-4.93Z"></path> <path class="cls-8" d="M854,160.92c-13,13.64-17.66,51.23,25,61.74,38.55,9.51,23,13.12,25.33,26S936.23,245.61,933,261c-2.39,11.4,8.56,10.41,16.67,11.14,0,0,13.62-24.54,39-30.08,0,0-8.07-.31-12-12.64s-12.86-4.37-21.73-6.94,4.49-23.48-12.94-27-18.29-13.86-26.56-24.89C900.66,150.87,872.68,141.34,854,160.92Z"></path> <path class="cls-16" d="M732,240.58s-27.53-4.38-24.26-15.31,26.25,7,26.25,7Z"></path> <path class="cls-16" d="M324,178.83s-2.41,26.64-7.78,29.73-18.45,6.71-18.45,6.71l22.62,16.54,32.76-5.57s-18.29-11.25-18-17.35c.56-10.34,4.42-29,4.42-29Z"></path> <path class="cls-7" d="M340.56,131.15c28,.09,6.05,63.49-6.66,63.46-19.53,0-22.94-21-21.88-33.54C314,137.36,324.89,131.1,340.56,131.15Z"></path> <path class="cls-15" d="M403.46,583c-7.5-8.57-48.07-6.46-53.53-1.8s-6.38,12.95-.94,15.37C360.57,601.69,411.37,592,403.46,583Z"></path> <path class="cls-15" d="M327.07,571.77c-8.92-7.08-48.45,2.29-53,7.85s-4,13.88,1.84,15.29C288.24,597.89,336.47,579.23,327.07,571.77Z"></path> <path class="cls-6" d="M267.27,331.86s-8.55,15.61-11,50.89c-1.14,16.33,1.79,37.91,2.48,62.23,2.19,76.88,7.91,133.34,7.91,133.34s9.25,5.84,28.45-.12c0,0-8.48-174.91,6.7-174.21,12.73.59,39.18,176.17,39.18,176.17s11.5,7.47,29.13-2.91c0,0-19.6-195.37-23.41-232.42Z"></path> <path class="cls-16" d="M388.33,261.75S392,232,405.05,234.9s-6.84,28.5-6.84,28.5Z"></path> <path class="cls-15" d="M315,208.34s6.91,10.69,25.76,5.33c0,0,11.87,5.06,28.74,20.4,11.3,10.27,10.86,57.64,9.51,83.59-.5,9.55-19.65,14.74-21.6-3.18-.8-7.33-3.29-34.91-3.29-34.91s-.35,61,2.78,90.09c0,0-62.22,10-98.89-20.1l9.2-43.37s-8.61-4.73-6.61-29.11,9.43-50.26,17.91-56.64S315,208.34,315,208.34Z"></path> <path class="cls-15" d="M377.83,330.19c14.23-8.07,24.47-65.78,24.47-65.78s-9.63-10.48-20.24-2l-23.77,52.77S363.16,338.51,377.83,330.19Z"></path> <path class="cls-16" d="M608.31,360.48a26,26,0,0,0,9.43-15.77c3.26-19.77,6.91-53.31,32.7-45.51,16.6,5,14.13,21.52,8.06,35.15-4,9-8.8,17.59-13.58,17.81-10.47.48-11.92-5.44-18.63,13-2.72,7.49,17.43,16.07,17.43,16.07s-17.46,3.94-31.8-4S591,361.64,591,361.64,599.76,366.52,608.31,360.48Z"></path> <path class="cls-15" d="M619.05,345.42c-9.45-3.66-2.06-26.45.51-35s12-21,26.13-19.88,35,22.29,12.74,23.45C640.4,314.93,644.4,355.24,619.05,345.42Z"></path> <path class="cls-16" d="M717.87,435.74s0-10.12,6.75-14.63c3.69-2.47,13.61-2.57,16.84,0,9.13,7.31-16.46,19.75-16.46,19.75Z"></path> <polygon class="cls-11" points="524.87 592.84 432.93 548.54 524.87 504.24 616.8 548.54 524.87 592.84"></polygon> <polygon class="cls-3" points="524.87 697.06 432.93 652.76 524.87 608.47 616.8 652.76 524.87 697.06"></polygon> <polygon class="cls-4" points="524.87 592.84 524.87 729.63 432.93 685.33 432.93 548.54 524.87 592.84"></polygon> <polygon class="cls-5" points="524.87 592.84 616.8 548.54 616.8 685.33 524.87 729.63 524.87 592.84"></polygon> <path class="cls-15" d="M519.28,478.35S498.53,518.71,531,532.92c15.41,6.74,34,7.29,47.71,8,14.72.77,23.81,1.67,30.72,5l7.09,3.42V623.5s41.77-74.42,35.1-93.41C644.07,508.46,540.17,442.26,519.28,478.35Z"></path> <path class="cls-5" d="M612.41,368.25c-8.77-4.35-6.94-6.35-6.94-6.35s-28.37-5.71-40.36,4.59-36.86,56.34-52.36,108.33c0,0,30.33,30.47,101.81,22.58,0,0,1.67-67,22.27-69,10.16-1,29.85,55.45,43.05,54.3s50-37.14,50-37.14-3.53-15.91-18-13.38l-25.71,14.86s-22.44-55.37-34.81-61.72a146.08,146.08,0,0,1-21.05-13.13S620.39,372.21,612.41,368.25Z"></path> <line class="cls-12" x1="727.25" y1="424.4" x2="749.61" y2="413.22"></line> <path class="cls-11" d="M904.49,534.57c-4.52-20.79-7.37-42-9.95-63.11s-5.42-42.82-4.06-64.06c.21-3.28.39-6.86,1.57-10,2.52-6.63,7.92-7.44,14.1-8.38.73-.11.42-1.21-.3-1.1-5.48.81-9.47.94-13,5.67a15.54,15.54,0,0,0-2.82,6.81c-1.57,8.25-1.09,17-.72,25.35,1.11,25,4.35,50,8.29,74.76,1.82,11.44,3.82,22.88,6.44,34.16.07.3.52.17.46-.13Z"></path> </g> <g id="Слой_4" data-name="Слой 4"> <path class="cls-11" d="M115.47,265c-9.58,31.54-21.94,61.72-26.7,94.55-.1.67.94,1,1,.29a296.85,296.85,0,0,1,10.42-45.6c5.09-16.38,11.83-32.38,15.45-49.18a.11.11,0,0,0-.2-.06Z"></path> <path class="cls-11" d="M78.18,248.75a340,340,0,0,0-7.75,115.15c.09.89,1.5.9,1.41,0a358.55,358.55,0,0,1,6.7-115.06c.05-.23-.3-.33-.36-.1Z"></path> <path class="cls-11" d="M39.07,257.53a415.48,415.48,0,0,1,15,53.75c.12.58,1,.33.88-.24a304.14,304.14,0,0,0-15.52-53.62c-.09-.24-.48-.14-.39.11Z"></path> <path class="cls-11" d="M99,317.08c2.42-.82,4.63-2.07,7.14-2.69a34.28,34.28,0,0,1,6.71-.89.5.5,0,0,0,0-1c-4.41-.08-10.85,1-14,4.32-.1.11,0,.32.15.26Z"></path> <path class="cls-11" d="M101.92,321c2.34-.54,4.71-1,7-1.72a.35.35,0,0,0-.19-.68c-2.34.51-4.63,1.29-6.92,2a.21.21,0,0,0,.11.41Z"></path> <path class="cls-11" d="M92.74,301.11c.36,1.71.87,3.39,1.31,5.09a40.4,40.4,0,0,0,1.33,5.08c.12.3.62.3.6-.08a31.41,31.41,0,0,0-2.85-10.25c-.1-.24-.45-.06-.4.17Z"></path> <path class="cls-11" d="M70,307.26a34.12,34.12,0,0,1,10-10.89c.48-.33,0-1.12-.46-.79a29.29,29.29,0,0,0-10,11.43.25.25,0,0,0,.42.25Z"></path> <path class="cls-11" d="M74,309.76a22.73,22.73,0,0,1,4.68-4.44,33,33,0,0,0,4-2.82.26.26,0,0,0-.25-.43,16.41,16.41,0,0,0-4.57,3.06,20.74,20.74,0,0,0-4.22,4.41c-.16.24.21.44.38.22Z"></path> <path class="cls-11" d="M62.26,319.74c1.1,5.27,3.39,11.11,6.88,15.28.22.27.59-.07.46-.35-2.44-5.12-5.58-9.39-6.86-15.06-.07-.31-.54-.18-.47.13Z"></path> <path class="cls-11" d="M58.65,343.52c2.2,5.55,6.38,12.21,11.9,15.05.32.17.7-.26.4-.52-4.87-4.4-9.16-8.55-11.85-14.72-.11-.25-.55-.07-.45.19Z"></path> <path class="cls-11" d="M31.61,264.21a63.86,63.86,0,0,1,6.61,3.07,29.43,29.43,0,0,1,6,5.19.34.34,0,0,0,.54-.42c-2.33-4.11-8.37-7.54-13-8.18-.19,0-.35.24-.14.34Z"></path> <path class="cls-11" d="M55.84,345.95a30,30,0,0,0,6,8.87c.37.37.92-.19.57-.57A58.72,58.72,0,0,1,56,345.86a.09.09,0,0,0-.15.09Z"></path> <path class="cls-11" d="M86.94,376c-.55,3-1.12,5.91-2.94,8.49-.29.41.39.8.67.39A16.8,16.8,0,0,0,87.32,376c0-.21-.34-.27-.38-.05Z"></path> <path class="cls-11" d="M97.51,376.63a68,68,0,0,1-13.77,23.55.3.3,0,0,0,.36.47c7.37-4.32,12-16,13.81-23.91a.21.21,0,0,0-.41-.11Z"></path> <path class="cls-11" d="M94.18,394.84a36.11,36.11,0,0,1-7.1,10.77.35.35,0,0,0,.5.5,27.43,27.43,0,0,0,7-11.12c.07-.2-.26-.35-.35-.15Z"></path> <path class="cls-11" d="M101.45,373.67a11,11,0,0,1-1.62,5.57c-.13.22.19.39.33.2a8.8,8.8,0,0,0,1.74-5.77.23.23,0,0,0-.46,0Z"></path> <path class="cls-11" d="M53.13,382.27a16.72,16.72,0,0,0,1.53,11.26c.17.31.7.1.58-.24a23,23,0,0,1-1.49-10.93c0-.35-.55-.43-.62-.08Z"></path> <path class="cls-11" d="M688.32,450.73c1.08,1.11,2.41,1.78,3.31,3.1a11.43,11.43,0,0,1,1.57,4.27.47.47,0,0,0,.92-.12c0-2.83-2.59-7.2-5.67-7.57-.17,0-.23.21-.13.32Z"></path> <path class="cls-11" d="M687.07,453a18.37,18.37,0,0,1,1.47,13.92.5.5,0,0,0,1,.27,18.31,18.31,0,0,0-2-14.46.27.27,0,0,0-.47.28Z"></path> <path class="cls-11" d="M280.76,242.6a538.48,538.48,0,0,0-11.69,53c-.1.58.8.84.9.25,3.07-17.82,6.61-35.61,11.16-53.12a.19.19,0,0,0-.37-.1Z"></path> <path class="cls-11" d="M878.17,493c4.1-1.79,8.14-1.9,12.52-1.84a.3.3,0,0,0,.08-.59c-4.32-.92-8.87.3-12.78,2.11-.22.1,0,.41.19.32Z"></path> <path class="cls-11" d="M881.08,497.59c1-.28,1.88-.73,2.88-.94a12.88,12.88,0,0,1,3.37-.25c.52,0,.52-.8,0-.81-2.1,0-4.69.31-6.41,1.62-.18.13-.09.46.16.39Z"></path> <path class="cls-11" d="M381.23,295.37c2.57,4.58,3.34,10.68,1.13,15.62a.33.33,0,0,0,.56.33c3.28-4.33,1.78-12.25-1.19-16.24-.22-.29-.69,0-.5.29Z"></path> <path class="cls-11" d="M385.14,296.85a10,10,0,0,1,2.08,3c.38.86.43,2,1,2.7.16.21.45.05.53-.14.4-1-.33-2.43-.81-3.31a8.46,8.46,0,0,0-2.42-2.73c-.29-.21-.61.24-.37.48Z"></path> <path class="cls-11" d="M756.45,181.07a24.48,24.48,0,0,1,6.26,16.39c-.15,6.68-3,11.42-7.16,16.43a.52.52,0,0,0,.73.73c10.32-8,9.86-25.4.54-33.93a.26.26,0,0,0-.37.37Z"></path> <path class="cls-11" d="M736.07,219.44c3.12,1.71,9.06,1,12.09-.69.36-.2.23-.89-.23-.84-2.11.27-4.1.94-6.25,1.09-1.85.13-3.75-.25-5.57.06a.2.2,0,0,0,0,.37Z"></path> <path class="cls-11" d="M896.26,213.32c4.91,1.9,9.78,2.47,14.47,5.06.29.16.65-.25.37-.48-3.67-3.19-10.11-4.39-14.8-4.91-.2,0-.21.27,0,.33Z"></path> <path class="cls-11" d="M916.31,225.41c1.55,4.08-3.44,10.88.64,14.35,3.57,3,10.82.39,14.94.59,5.2.26,7.91,2.58,10.37,6.93a25.39,25.39,0,0,0,18.42,13c.77.14,1.09-1,.32-1.17a24.64,24.64,0,0,1-16.36-9.93c-2.21-3.15-3.17-6.69-6.83-8.51-5.07-2.52-10.12-.15-15.36-.74-9.8-1.11-3.17-9.54-5.85-14.68-.08-.16-.35,0-.29.12Z"></path> <path class="cls-11" d="M923.67,232.76c2.53,2.14,5.71,2.39,8.91,2.72,2.7.28,5.53.31,8,1.56,3.09,1.56,4.21,4.08,5.95,6.83a30.55,30.55,0,0,0,18,13.06.72.72,0,0,0,.38-1.39,30,30,0,0,1-13.31-7.18c-3.08-2.93-4.49-6.82-7.27-9.86-1.92-2.1-4.65-3-7.39-3.46-4.57-.77-8.82-.79-13.25-2.39a.07.07,0,0,0-.07.12Z"></path> <path class="cls-11" d="M947.39,226.69c3.08,1.4,6.24,2.85,9.67,3,2.25.12,5.92-.92,8,.27,2.63,1.47,3.14,4.28,4.31,6.7,2.25,4.67,6.49,7.7,11.32,9.34a.56.56,0,0,0,.43-1c-2.57-1.37-5.23-2.37-7.4-4.4a15.81,15.81,0,0,1-4.06-6.23c-.42-1.17-.44-2.76-1.24-3.77-1.3-1.64-4.07-2-6-2.07-2.61-.12-5.06.45-7.69-.08a46.71,46.71,0,0,1-7.12-2.43c-.38-.14-.65.49-.28.66Z"></path> <path class="cls-11" d="M146.34,691.76a505.86,505.86,0,0,0,128.19-3.33c.73-.11.56-1.39-.18-1.29a655.46,655.46,0,0,1-128,4.26c-.24,0-.23.35,0,.37Z"></path> <path class="cls-11" d="M308.5,679.68c14.79-3.41,29.54-6.72,44.05-11.26a.56.56,0,0,0-.3-1.08c-14.54,4.16-29.1,8.6-43.85,12-.22.05-.13.39.09.34Z"></path> <path class="cls-11" d="M183.67,683c16.06,1.68,32.63.8,48.68-.43.79-.06.79-1.3,0-1.23-16.26,1.34-32.4,1-48.68,1.28a.19.19,0,0,0,0,.39Z"></path> <path class="cls-11" d="M663.72,631.76c19.47,3.34,39,5.72,58.43,9.66s38.51,8.84,57.55,14.22a.68.68,0,0,0,.36-1.31c-19.21-5.79-38.82-10.48-58.5-14.35-19-3.73-38.47-7.37-57.81-8.43-.12,0-.15.19,0,.21Z"></path> <path class="cls-11" d="M748.33,638.24a291.86,291.86,0,0,1,29.53,7.46c9.74,3,18.95,7.37,28.59,10.51a.38.38,0,0,0,.29-.69c-8.47-4.69-18.51-7.6-27.75-10.45a248.17,248.17,0,0,0-30.56-7.18c-.23,0-.33.31-.1.36Z"></path> <path class="cls-11" d="M740.3,630.47c8.16,1.5,15.59,4,23.49,6.34a.29.29,0,0,0,.22-.53c-7.06-3.68-15.77-5.48-23.68-6.09-.16,0-.19.25,0,.28Z"></path> <path class="cls-11" d="M624.27,310.93c-1.87,5-3.71,9.94-5.28,15-.16.52.64.73.81.22,1.75-5,3.22-10.08,4.65-15.18,0-.12-.14-.17-.19-.05Z"></path> <path class="cls-11" d="M624,323.45c-.91,3-2.35,6.39-2.59,9.53a.48.48,0,0,0,.88.24c1.45-2.83,1.73-6.59,2.05-9.72,0-.2-.29-.23-.35,0Z"></path> <path class="cls-11" d="M645.43,308.87a26.13,26.13,0,0,0-2.8,2.11,6.77,6.77,0,0,0-2.13,2.46.28.28,0,0,0,.4.31,13.24,13.24,0,0,0,2.05-2.21,18.33,18.33,0,0,1,2.67-2.33c.2-.14,0-.47-.2-.33Z"></path> <path class="cls-11" d="M325.06,139.68C320.68,143,318.47,149.77,318,155c0,.55.78.62.93.13,1.57-5.19,2.11-11.3,6.43-15.11.2-.18-.07-.54-.29-.37Z"></path> <path class="cls-11" d="M321.78,152.19c-1.11,3.77-2.66,8.43-1.95,12.4a.34.34,0,0,0,.64,0c.34-1.77.2-3.61.38-5.41a38.62,38.62,0,0,1,1.3-6.89.19.19,0,0,0-.37-.1Z"></path> <path class="cls-11" d="M337,145a44,44,0,0,0-.12,6.5.33.33,0,0,0,.67,0,44,44,0,0,0-.12-6.5.21.21,0,0,0-.42,0Z"></path> <path class="cls-11" d="M265.32,478.16c3.72,4.66,9.45,8.41,15.68,8.18.41,0,.54-.66.1-.74-6-1.14-11.33-3-15.57-7.65-.13-.14-.33.06-.21.21Z"></path> <path class="cls-11" d="M267.31,485.7c.84.66,1.63,1.36,2.43,2.06a7.44,7.44,0,0,0,2.14,1.59.33.33,0,0,0,.37-.48,7.46,7.46,0,0,0-2.08-1.66c-.88-.6-1.76-1.19-2.61-1.83-.18-.14-.42.17-.24.32Z"></path> <path class="cls-11" d="M329.77,485.28c3.58,3.06,8.62,4.08,13.22,3.75.77-.05.76-1.26,0-1.2-4.78.41-8.72-.86-13-2.83-.17-.08-.38.14-.21.28Z"></path> </g> </svg> 