<?xml version="1.0" encoding="UTF-8"?> <svg xmlns="http://www.w3.org/2000/svg" viewBox="0 0 372.48 463.43"> <defs> <style>.cls-1{fill:none;stroke:#a5b9d9;stroke-miterlimit:10;}.cls-2{fill:#7bb1ff;}.cls-3{fill:#fff;}.cls-4{fill:#e4e8ea;}.cls-5{fill:#e9f6ff;}.cls-6{fill:#cae5ff;}</style> </defs> <title>template_illustrationМонтажная область 14</title> <g id="Слой_1" data-name="Слой 1"> <circle class="cls-1" cx="50.95" cy="356.61" r="7.31"></circle> <circle class="cls-1" cx="68.97" cy="338.87" r="7.31"></circle> <circle class="cls-1" cx="68.97" cy="374.66" r="7.31"></circle> <line class="cls-1" x1="55.99" y1="361.9" x2="63.92" y2="369.83"></line> <line class="cls-1" x1="64.1" y1="343.7" x2="56.24" y2="351.57"></line> </g> <g id="Слой_4" data-name="Слой 4"> <rect class="cls-1" x="89.44" y="200.8" width="160.8" height="111.1" rx="6.42" ry="6.42"></rect> <path class="cls-2" d="M93.55,200.07H246.12a4.56,4.56,0,0,1,4.56,4.56v2.16a0,0,0,0,1,0,0H89a0,0,0,0,1,0,0v-2.16A4.56,4.56,0,0,1,93.55,200.07Z"></path> <line class="cls-1" x1="127.11" y1="206.8" x2="127.11" y2="311.89"></line> <circle class="cls-1" cx="43.64" cy="42.1" r="38.84"></circle> <ellipse class="cls-1" cx="43.2" cy="42.1" rx="9.6" ry="38.84"></ellipse> <ellipse class="cls-1" cx="43.2" cy="42.1" rx="25.31" ry="38.84"></ellipse> <line class="cls-1" x1="4.8" y1="41.67" x2="82.48" y2="41.67"></line> <rect class="cls-1" x="218.25" y="102.85" width="61.32" height="55.46"></rect> <line class="cls-1" x1="228.33" y1="97" x2="228.33" y2="108.71"></line> <line class="cls-1" x1="248.76" y1="97" x2="248.76" y2="108.71"></line> <line class="cls-1" x1="269.19" y1="97" x2="269.19" y2="108.71"></line> <rect class="cls-1" x="228.33" y="119.33" width="40.86" height="27.79"></rect> <polygon class="cls-3" points="287.98 337.23 209.83 299.57 287.98 261.92 366.13 299.57 287.98 337.23"></polygon> <polygon class="cls-4" points="287.98 425.82 209.83 388.16 287.98 350.51 366.13 388.16 287.98 425.82"></polygon> <polygon class="cls-5" points="287.98 337.23 287.98 453.5 209.83 415.85 209.83 299.57 287.98 337.23"></polygon> <polygon class="cls-6" points="287.98 337.23 366.13 299.57 366.13 415.85 287.98 453.5 287.98 337.23"></polygon> </g> </svg> 